<svg class="main-svg" xmlns="http://www.w3.org/2000/svg" xmlns:xlink="http://www.w3.org/1999/xlink" width="500" height="500" style="" viewBox="0 0 500 500"><rect x="0" y="0" width="500" height="500" style="fill: rgb(255, 255, 255); fill-opacity: 1;"/><defs id="defs-7d3079"><g class="clips"><clipPath id="clip7d3079polar-for-traces"><path d="M160,0A160,160 0,1,0 -160,-1.9594348786357652e-14A160,160 0,1,0 160,3.9188697572715304e-14Z" transform="translate(160,160)"/></clipPath></g><g class="gradients"/><g class="patterns"/></defs><g class="bglayer"/><g class="layer-below"><g class="imagelayer"/><g class="shapelayer"/></g><g class="cartesianlayer"/><g class="polarlayer"><g class="polar"><g class="polarsublayer draglayer"/><g class="polarsublayer plotbg"><path d="M160,0A160,160 0,1,0 -160,-1.9594348786357652e-14A160,160 0,1,0 160,3.9188697572715304e-14Z" transform="translate(250,260)" style="fill: rgb(229, 236, 246); fill-opacity: 1;"/></g><g class="polarsublayer backplot"><g class="maplayer"/></g><g class="polarsublayer angular-grid" style="fill: none;"><path class="angularaxisgrid" d="M250,260L410,260" style="stroke: rgb(255, 255, 255); stroke-opacity: 1; stroke-width: 1px;"/><path class="angularaxisgrid" d="M250,260L330,121.43593539448983" style="stroke: rgb(255, 255, 255); stroke-opacity: 1; stroke-width: 1px;"/><path class="angularaxisgrid" d="M250,260L170.00000000000003,121.4359353944898" style="stroke: rgb(255, 255, 255); stroke-opacity: 1; stroke-width: 1px;"/><path class="angularaxisgrid" d="M250,260L90,260" style="stroke: rgb(255, 255, 255); stroke-opacity: 1; stroke-width: 1px;"/><path class="angularaxisgrid" d="M250,260L169.99999999999994,398.5640646055101" style="stroke: rgb(255, 255, 255); stroke-opacity: 1; stroke-width: 1px;"/><path class="angularaxisgrid" d="M250,260L330,398.56406460551017" style="stroke: rgb(255, 255, 255); stroke-opacity: 1; stroke-width: 1px;"/></g><g class="polarsublayer radial-grid" transform="translate(250,260)" style="fill: none;"><path class="xgrid" d="M35.56,0A35.56,35.56 0,1,0 -35.56,-4.354844017767988e-15A35.56,35.56 0,1,0 35.56,8.709688035535976e-15Z" style="stroke: rgb(255, 255, 255); stroke-opacity: 1; stroke-width: 1px;"/><path class="xgrid" d="M71.11,0A71.11,71.11 0,1,0 -71.11,-8.708463388736829e-15A71.11,71.11 0,1,0 71.11,1.7416926777473658e-14Z" style="stroke: rgb(255, 255, 255); stroke-opacity: 1; stroke-width: 1px;"/><path class="xgrid" d="M106.67,0A106.67,106.67 0,1,0 -106.67,-1.3063307406504817e-14A106.67,106.67 0,1,0 106.67,2.6126614813009634e-14Z" style="stroke: rgb(255, 255, 255); stroke-opacity: 1; stroke-width: 1px;"/><path class="xgrid" d="M142.22,0A142.22,142.22 0,1,0 -142.22,-1.7416926777473658e-14A142.22,142.22 0,1,0 142.22,3.4833853554947316e-14Z" style="stroke: rgb(255, 255, 255); stroke-opacity: 1; stroke-width: 1px;"/></g><g class="polarsublayer frontplot" transform="translate(90,100)"><g class="barlayer"/><g class="scatterlayer"><g class="trace scatter tracee7a381" style="stroke-miterlimit: 2; opacity: 1;"><g class="fills" clip-path="url(#clip7d3079polar-for-traces)"><g><path class="js-fill" d="M256,160L225.78,46.07L112,76.86L78.22,160L106.67,252.38L218.67,261.61L256,160Z" style="fill: rgb(148, 103, 189); fill-opacity: 1; stroke-width: 0;"/></g></g><g class="errorbars"/><g class="lines"><path class="js-line" d="M256,160L225.78,46.07L112,76.86L78.22,160L106.67,252.38L218.67,261.61L256,160" clip-path="url(#clip7d3079polar-for-traces)" style="vector-effect: none; fill: none; stroke: rgb(148, 103, 189); stroke-opacity: 1; stroke-width: 2px; opacity: 1;"/></g><g class="points"><path class="point" transform="translate(256,160)" d="M3,0A3,3 0 1,1 0,-3A3,3 0 0,1 3,0Z" style="opacity: 1; stroke-width: 0px; fill: rgb(148, 103, 189); fill-opacity: 1;"/><path class="point" transform="translate(225.78,46.07)" d="M3,0A3,3 0 1,1 0,-3A3,3 0 0,1 3,0Z" style="opacity: 1; stroke-width: 0px; fill: rgb(148, 103, 189); fill-opacity: 1;"/><path class="point" transform="translate(112,76.86)" d="M3,0A3,3 0 1,1 0,-3A3,3 0 0,1 3,0Z" style="opacity: 1; stroke-width: 0px; fill: rgb(148, 103, 189); fill-opacity: 1;"/><path class="point" transform="translate(78.22,160)" d="M3,0A3,3 0 1,1 0,-3A3,3 0 0,1 3,0Z" style="opacity: 1; stroke-width: 0px; fill: rgb(148, 103, 189); fill-opacity: 1;"/><path class="point" transform="translate(106.67,252.38)" d="M3,0A3,3 0 1,1 0,-3A3,3 0 0,1 3,0Z" style="opacity: 1; stroke-width: 0px; fill: rgb(148, 103, 189); fill-opacity: 1;"/><path class="point" transform="translate(218.67,261.61)" d="M3,0A3,3 0 1,1 0,-3A3,3 0 0,1 3,0Z" style="opacity: 1; stroke-width: 0px; fill: rgb(148, 103, 189); fill-opacity: 1;"/><path class="point" transform="translate(256,160)" d="M3,0A3,3 0 1,1 0,-3A3,3 0 0,1 3,0Z" style="opacity: 1; stroke-width: 0px; fill: rgb(148, 103, 189); fill-opacity: 1;"/></g><g class="text"/></g></g></g><g class="polarsublayer angular-line"><path d="M160,0A160,160 0,1,0 -160,-1.9594348786357652e-14A160,160 0,1,0 160,3.9188697572715304e-14Z" transform="translate(250,260)" stroke-width="1" style="fill: none; stroke: rgb(255, 255, 255); stroke-opacity: 1;"/></g><g class="polarsublayer radial-line"><line x1="0" y1="0" x2="160" y2="0" transform="translate(250,260)" stroke-width="1" style="fill: none; stroke: rgb(255, 255, 255); stroke-opacity: 1;"/></g><g class="polarsublayer angular-axis"><g class="angularaxistick"><text text-anchor="start" x="2.9000000000000004" y="4.199999999999999" transform="translate(410,260)" style="font-family: Inter, sans-serif; font-size: 12px; fill: rgb(42, 63, 95); fill-opacity: 1; white-space: pre;">expressiveness</text></g><g class="angularaxistick"><text text-anchor="start" x="1.4500000000000004" y="-2.4899346400575255" transform="translate(330,121.43593539448983)" style="font-family: Inter, sans-serif; font-size: 12px; fill: rgb(42, 63, 95); fill-opacity: 1; white-space: pre;">extensibility</text></g><g class="angularaxistick"><text text-anchor="end" x="-1.4499999999999995" y="-2.489934640057527" transform="translate(170.00000000000003,121.4359353944898)" style="font-family: Inter, sans-serif; font-size: 12px; fill: rgb(42, 63, 95); fill-opacity: 1; white-space: pre;">scalability</text></g><g class="angularaxistick"><text text-anchor="end" x="-2.9000000000000004" y="4.199999999999998" transform="translate(90,260)" style="font-family: Inter, sans-serif; font-size: 12px; fill: rgb(42, 63, 95); fill-opacity: 1; white-space: pre;">accessibility</text></g><g class="angularaxistick"><text text-anchor="end" x="-1.4500000000000015" y="15.003778516388133" transform="translate(169.99999999999994,398.5640646055101)" style="font-family: Inter, sans-serif; font-size: 12px; fill: rgb(42, 63, 95); fill-opacity: 1; white-space: pre;">maturity</text></g><g class="angularaxistick"><text text-anchor="start" x="1.4500000000000004" y="15.003778516388135" transform="translate(330,398.56406460551017)" style="font-family: Inter, sans-serif; font-size: 12px; fill: rgb(42, 63, 95); fill-opacity: 1; white-space: pre;">supply_chain</text></g></g><g class="polarsublayer radial-axis" transform="translate(250,260)"><g class="xtick"><text text-anchor="middle" x="0" y="14.9" transform="" style="font-family: Inter, sans-serif; font-size: 12px; fill: rgb(42, 63, 95); fill-opacity: 1; white-space: pre;">F</text></g><g class="xtick"><text text-anchor="middle" x="0" y="14.9" transform="translate(35.56,0)" style="font-family: Inter, sans-serif; font-size: 12px; fill: rgb(42, 63, 95); fill-opacity: 1; white-space: pre;">D</text></g><g class="xtick"><text text-anchor="middle" x="0" y="14.9" transform="translate(71.11,0)" style="font-family: Inter, sans-serif; font-size: 12px; fill: rgb(42, 63, 95); fill-opacity: 1; white-space: pre;">C</text></g><g class="xtick"><text text-anchor="middle" x="0" y="14.9" transform="translate(106.67,0)" style="font-family: Inter, sans-serif; font-size: 12px; fill: rgb(42, 63, 95); fill-opacity: 1; white-space: pre;">B</text></g><g class="xtick"><text text-anchor="middle" x="0" y="14.9" transform="translate(142.22,0)" style="font-family: Inter, sans-serif; font-size: 12px; fill: rgb(42, 63, 95); fill-opacity: 1; white-space: pre;">A</text></g></g></g></g><g class="smithlayer"/><g class="ternarylayer"/><g class="geolayer"/><g class="funnelarealayer"/><g class="pielayer"/><g class="iciclelayer"/><g class="treemaplayer"/><g class="sunburstlayer"/><g class="glimages"/><defs id="topdefs-7d3079"><g class="clips"/></defs><g class="layer-above"><g class="imagelayer"/><g class="shapelayer"/></g><g class="infolayer"><g class="g-gtitle"><text class="gtitle" x="25" y="50" text-anchor="start" dy="0em" style="opacity: 1; font-family: Inter, sans-serif; font-size: 17px; fill: rgb(42, 63, 95); fill-opacity: 1; white-space: pre;">powersimulations</text></g><g class="g-polartitle"/></g></svg>
